<svg width="24" height="21" viewBox="0 0 24 21" fill="none" xmlns="http://www.w3.org/2000/svg">
<path d="M24 5.42027L20.5468 0H3.48201L0 5.30676V10.7554H0.863309C1.26619 10.7554 1.69784 10.6703 2.07194 10.5V21H21.9281V10.5851C22.3022 10.7838 22.705 10.8689 23.1367 10.8689H24V5.42027ZM4.40288 1.7027H19.5971L21.5827 4.79595L2.44604 4.71081L4.40288 1.7027ZM14.1583 19.2973H9.84173V15.0405H14.1583V19.2973ZM15.8849 19.2973V13.3378H8.11511V19.2973H3.79856V9.62027C4.05755 9.67703 4.28777 9.79054 4.46043 9.98919C4.97842 10.5 5.69784 10.7838 6.41727 10.7838C7.13669 10.8122 7.85612 10.5284 8.3741 10.0176C8.69065 9.76216 8.83453 9.64865 9.20863 9.64865C9.52518 9.64865 9.84173 9.79054 10.0432 10.0176C10.5612 10.5284 11.2806 10.8122 12 10.8122H12.0288C12.7482 10.8122 13.4388 10.5284 13.9568 10.0459C14.1583 9.79054 14.4748 9.67703 14.7914 9.67703C15.1655 9.67703 15.3094 9.79054 15.6259 10.0459C16.1439 10.5568 16.8345 10.8405 17.5827 10.8405C18.3022 10.8405 19.0216 10.5568 19.5396 10.0743C19.7122 9.87568 19.9424 9.73378 20.2014 9.70541V19.2973H15.8849ZM20.3741 8.0027C19.6259 8.0027 18.9353 8.25811 18.4173 8.76892C18.1007 9.02432 17.9568 9.13784 17.5827 9.13784C17.2662 9.13784 16.9496 8.99595 16.7482 8.76892C16.2302 8.25811 15.5396 7.97432 14.7914 7.97432C14.0719 7.97432 13.3525 8.22973 12.8345 8.74054C12.6331 8.96757 12.3453 9.10946 12.0288 9.10946H12C11.6259 9.10946 11.482 8.99595 11.1655 8.74054C10.6763 8.22973 9.95683 7.94595 9.23741 7.94595C8.48921 7.91757 7.79856 8.20135 7.28057 8.71216C6.96403 8.96757 6.82014 9.08108 6.44604 9.08108C6.1295 9.08108 5.81295 8.96757 5.61151 8.71216C5.09352 8.20135 4.3741 7.91757 3.65468 7.91757H3.6259C2.90647 7.91757 2.2446 8.17297 1.72662 8.65541V6.41351L22.2734 6.52703V8.76892C21.7842 8.25811 21.0935 8.0027 20.3741 8.0027Z" fill="white"/>
</svg>
